<svg width="155" height="155" viewBox="0 0 155 155" fill="none" xmlns="http://www.w3.org/2000/svg">
<path fill-rule="evenodd" clip-rule="evenodd" d="M58 1.96517C31.429 9.00217 10.755 29.0732 2.343 56.0012C0.354002 62.3672 0 65.6182 0 77.5012C0 89.3842 0.354002 92.6352 2.343 99.0012C6.669 112.85 11.944 121.526 22.457 132.089C30.625 140.296 33.369 142.35 41.5 146.349C54.146 152.568 64.12 155.003 76.91 154.994C112.854 154.969 143.786 131.07 152.501 96.5912C155.231 85.7872 155.235 69.1942 152.508 58.5332C145.425 30.8392 123.578 8.94817 96.09 2.00017C85.593 -0.652827 67.947 -0.668831 58 1.96517ZM71.289 8.25117C71.857 8.93917 72.648 15.2382 73.047 22.2512C73.678 33.3692 73.574 35.0012 72.234 35.0012C71.083 35.0012 70.535 33.4292 70.055 28.7512C68.25 11.1652 68.456 12.0012 65.923 12.0012C64.632 12.0012 60.091 13.1082 55.831 14.4612C51.571 15.8132 47.898 16.7332 47.669 16.5042C47.44 16.2752 47.514 15.4072 47.833 14.5762C48.562 12.6752 54.228 10.2592 62 8.53417C69.841 6.79317 70.077 6.78617 71.289 8.25117ZM91.918 8.49017C94.072 8.85617 98.235 10.0522 101.168 11.1502C105.21 12.6622 106.5 13.6372 106.5 15.1802C106.5 16.7352 106.087 17.0402 104.75 16.4722C101.279 14.9972 89.996 12.0012 87.916 12.0012C86.02 12.0012 85.72 12.7332 85.152 18.7512C84.801 22.4642 84.504 27.0762 84.492 29.0012C84.463 33.4572 83.042 35.9432 81.439 34.3402C80.593 33.4942 80.557 30.0032 81.302 20.9652C82.32 8.63417 83.117 6.55717 86.5 7.43717C87.325 7.65117 89.763 8.12517 91.918 8.49017ZM38.058 20.7662C39.751 21.9422 53.5 42.4312 53.5 43.7782C53.5 47.0072 50.065 44.1912 44.112 36.0802C40.511 31.1732 37.193 26.9292 36.74 26.6492C35.824 26.0832 28.152 32.9262 24.76 37.3352C23.561 38.8932 22.112 39.8792 21.54 39.5262C19.008 37.9612 20.865 34.4102 27.887 27.3882C35.329 19.9462 36.128 19.4262 38.058 20.7662ZM125.692 26.7512C134.062 34.8242 135.247 36.6832 133.281 38.6492C132.061 39.8692 131.288 39.3792 127.678 35.0972C125.374 32.3652 122.175 29.1942 120.569 28.0502L117.648 25.9702L110.333 35.9592C104.086 44.4902 102.815 45.7452 101.627 44.5572C100.439 43.3692 101.226 41.7312 107.023 33.3332C114.853 21.9902 116.453 20.0012 117.752 20.0012C118.27 20.0012 121.843 23.0382 125.692 26.7512ZM84.445 43.4822C89.335 45.1462 93.458 47.4312 96.95 50.4142L102.16 54.8652L103.58 66.6832C104.361 73.1832 105 79.0732 105 79.7732C105 80.4722 102.681 82.1192 99.846 83.4322L94.692 85.8202L94.044 77.6602C93.687 73.1732 93.158 68.2632 92.868 66.7512L92.341 64.0012H77H61.659L61.045 70.7512C60.708 74.4642 60.197 79.3962 59.91 81.7132L59.389 85.9252L54.161 83.3612L48.933 80.7972L50.614 67.9702C51.538 60.9152 52.552 54.7272 52.866 54.2172C55.247 50.3652 70.497 41.9152 76.575 41.0802C76.891 41.0372 80.433 42.1182 84.445 43.4822ZM72.135 47.0742C66.782 51.2842 69.99 61.0012 76.733 61.0012C80.693 61.0012 82.433 60.0312 84.037 56.9292C86.139 52.8642 85.872 51.2202 82.577 47.9242C79.126 44.4742 75.786 44.2022 72.135 47.0742ZM27.238 53.2502C33.157 56.1372 38.177 58.6012 38.393 58.7262C38.608 58.8512 38.252 59.5952 37.599 60.3812C36.589 61.5992 35.149 61.3002 27.838 58.3512C16.144 53.6362 15.419 53.8432 13.342 62.5012C12.419 66.3512 11.626 70.9642 11.582 72.7512C11.519 75.2442 11.059 76.0012 9.607 76.0012C8.566 76.0012 7.463 75.3462 7.155 74.5452C5.971 71.4592 10.163 52.5232 12.755 49.2512C14.325 47.2692 15.822 47.6822 27.238 53.2502ZM143.461 53.6262C146.336 61.3112 148.225 73.6762 146.749 75.1522C144.491 77.4102 142.81 75.2452 142.186 69.2752C141.288 60.6762 139.396 55.5552 136.999 55.2302C135.9 55.0812 131.085 56.5042 126.3 58.3932C119.085 61.2412 117.407 61.5942 116.469 60.4632C115.556 59.3632 117.426 58.0402 126.169 53.6022C132.126 50.5782 137.98 48.0812 139.178 48.0532C140.924 48.0112 141.774 49.1162 143.461 53.6262ZM79.444 51.8962C80.652 54.1532 78.436 56.5742 76.013 55.6442C74.187 54.9442 73.999 51.3702 75.75 50.6632C77.916 49.7892 78.403 49.9522 79.444 51.8962ZM73.5 84.0522V96.1032L69.955 93.3992L66.409 90.6942L67.011 83.5982C67.931 72.7612 68.193 72.0012 71.019 72.0012H73.5V84.0522ZM86.944 80.9782C87.331 85.9152 87.375 90.3942 87.043 90.9312C86.711 91.4682 85.103 92.8592 83.47 94.0232L80.5 96.1372V84.0692V72.0012H83.371H86.242L86.944 80.9782ZM39 85.4792C52.78 89.1822 70.53 100.662 70.468 105.832C70.451 107.3 69.871 109.244 69.18 110.152C68.054 111.633 67.31 111.296 61.962 106.885C48.888 96.1002 32.382 90.0012 16.274 90.0012H7.367L7.684 87.2912C7.903 85.4142 8.769 84.3472 10.5 83.8232C14.389 82.6462 32.337 83.6892 39 85.4792ZM143.935 83.9762C145.968 84.7492 146.5 85.6302 146.498 88.2262L146.496 91.5012L133.748 91.5182C119.873 91.5372 114.879 92.6702 104.5 98.1492C91.423 105.054 76.651 120.569 68.586 135.868C63.831 144.888 63.167 142.84 67.066 131.177C76.498 102.959 103.588 83.4022 133.685 83.0832C137.912 83.0382 142.524 83.4402 143.935 83.9762ZM33.372 118.033C41.501 120.285 46.452 122.581 54.18 127.683C59.125 130.947 59.315 131.235 58.351 133.999L57.341 136.895L51.855 132.426C46.14 127.771 33.599 121.003 25 117.932C20.556 116.346 20.336 116.139 23.02 116.074C24.681 116.034 29.34 116.915 33.372 118.033ZM135.5 116.827C135.5 119.013 130.592 121.8 125.644 122.423C115.104 123.751 101.252 130.393 90.053 139.489C82.969 145.243 81.763 145.844 84.215 142.401C89.424 135.086 101.541 125.642 111.195 121.372C120.533 117.243 135.5 114.443 135.5 116.827Z" fill="#2F58CD"/>
</svg>
