<svg width="855" height="270" viewBox="0 0 855 270" fill="none" xmlns="http://www.w3.org/2000/svg">
<path d="M559.522 95.5021C497.586 53.7011 442.884 25.7321 396.796 12.2911C353.195 -0.420907 294.462 -3.72289 258.355 4.50511C204.678 16.7401 147.001 54.4421 87.8388 115.977C67.5418 137.086 40.0918 162.593 26.8438 172.653C1.29384 192.06 -4.68716 204.145 3.31184 220.191C9.15184 231.898 26.0838 237.781 39.9388 232.907C47.2208 230.345 55.5148 220.624 66.0168 202.34C81.3998 175.561 107.025 152.785 115.722 158.16C124.426 163.538 119.209 176.7 99.9558 197.962C78.7088 221.424 76.9199 230.176 91.8499 237.619C106.777 245.063 121.672 237.001 143.356 209.748C154.145 196.189 165.691 182.843 169.017 180.085C179.061 171.746 186.879 181.909 186.879 203.31C186.879 223.576 191.828 231.2 204.978 231.2C215.972 231.2 218.828 223.572 215.881 202.072C212.922 180.498 218.072 176.849 238.487 186.058C246.991 189.892 255.104 191.874 256.515 190.46C257.926 189.049 256.692 180.656 253.773 171.813C247.464 152.686 248.027 152.107 283.925 140.829C341.295 122.806 394.597 122.802 452.861 140.818C487.163 151.425 512.997 164.248 543.492 185.81C580.777 212.168 600.144 220.746 623.082 221.066C648.297 221.416 655.185 216.034 648.447 201.245C645.826 195.488 644.211 190.247 644.857 189.601C645.503 188.954 658.424 191.078 673.571 194.325C708.46 201.804 730.539 199.476 750.596 186.2C771.701 172.235 777.285 159.945 768.568 146.642C760.51 134.343 751.057 134.028 729.522 145.349C717.295 151.776 706.198 154.058 687.32 154.022C654.476 153.959 628.54 142.083 559.522 95.5021Z" fill="white"/>
<path d="M758.433 67.8914C764.313 74.9804 774.735 68.2303 771.386 59.5023C768.868 52.9413 759.844 52.0463 756.172 57.9933C754.773 60.2543 755.789 64.7074 758.433 67.8914Z" fill="white"/>
<path d="M742.163 97.2241C736.394 97.2241 734.605 94.4301 734.605 85.4031C734.605 76.1151 732.876 73.5811 726.531 73.5811C716.716 73.5811 703.298 100.424 703.168 120.319C703.082 133.453 703.204 133.543 717.563 130.848C725.527 129.355 738.826 125.418 747.116 122.1C769.554 113.124 766.389 97.2241 742.163 97.2241Z" fill="white"/>
<path d="M795.683 176.751C814.901 185.507 834.36 167.03 820.508 153.179C817.907 150.578 811.169 148.45 805.534 148.45C785.371 148.45 778.282 168.823 795.683 176.751Z" fill="white"/>
<path d="M284.603 208.346C290.73 214.473 301.153 209.094 301.153 199.799C301.153 194.381 298.568 191.796 293.15 191.796C283.854 191.796 278.475 202.218 284.603 208.346Z" fill="white"/>
<path d="M837.73 200.346C839.41 212.211 854.79 213.382 854.79 201.647C854.79 196.394 851.73 193.332 845.61 192.465C837.97 191.382 836.64 192.706 837.73 200.346Z" fill="white"/>
<path d="M675.325 223.04C679.36 229.565 691.26 225.766 691.26 217.952C691.26 214.867 688.73 211.372 685.637 210.182C678.186 207.325 671.085 216.179 675.325 223.04Z" fill="white"/>
<path d="M251.846 266.621C260.172 273.533 269.629 268.603 269.629 257.357C269.629 245.583 260.117 241.276 252.011 249.382C244.469 256.924 244.438 260.474 251.846 266.621Z" fill="white"/>
<path d="M736.115 262.724C743.401 262.724 750.009 254.56 747.668 248.452C745.067 241.674 732.139 241.312 729.696 247.947C727.115 254.965 730.488 262.724 736.115 262.724Z" fill="white"/>
<path d="M120.559 153.673C362.171 -46.1867 614.978 219.194 614.978 219.194" stroke="#03649F" stroke-width="0.5"/>
<path d="M120.55 153.661C308.82 -105.217 479.098 100.584 569.651 165.434C610.742 194.861 757.927 177.194 757.927 177.194" stroke="#03649F" stroke-width="0.5"/>
<path d="M312.743 53.6321C312.743 66.4151 177.855 106.788 157.811 122.273C147.283 130.406 135.107 149.729 128.394 149.729C114.665 151.691 139.891 132.2 155.85 120.312C166.917 112.067 171.539 110.645 171.539 102.661C171.539 83.1651 254.02 49.7101 273.516 49.7101C293.012 49.7101 312.743 34.1361 312.743 53.6321Z" fill="#03649F"/>
<path d="M222.528 53.6289L255.868 35.9789L271.557 30.0959L289.208 26.1729L306.858 24.2119H322.547L350.004 28.1339L375.499 34.0179L399.033 43.8239L420.605 53.6289L455.906 75.2019L473.557 86.9689L491.207 100.697L536.314 139.92L559.848 157.571L571.615 167.376L583.382 171.299L432.372 100.697L387.266 86.9689L340.198 79.1239H289.208L261.751 85.0079L238.217 88.9299L236.256 86.9689L222.528 53.6289Z" fill="#03649F"/>
<path d="M506.903 134.024L548.088 151.674L575.544 169.325L595.155 175.208L614.767 179.131L655.951 183.053L706.941 181.092L757.931 177.17L634.378 186.975C634.378 186.975 640.262 194.82 642.223 200.703C644.184 206.587 655.951 219.463 642.223 221.424C628.495 223.385 617.216 224.424 617.216 224.424L595.155 200.703L575.544 185.014L555.932 169.325L534.359 153.636L518.67 143.83L506.903 135.985V134.024Z" fill="#03649F"/>
<path d="M128.394 143.853L146.044 122.28L165.656 100.708L183.306 83.0572L200.957 69.3292L226.452 51.6792L253.908 37.9512L316.665 51.6792L187.228 108.553L128.394 143.853Z" fill="#03649F"/>
<path d="M609.79 200.261H629.401L634.379 185.046L765.777 175.24L746.165 190.93L724.592 200.261L709 199L701 198.5L692.745 197.782L693.214 197.519L704.981 190.93L655.952 218.386L629.401 219.873L621.665 220.413L613.712 219.873L609.79 200.261Z" fill="#03649F"/>
</svg>
