<svg width="400" height="400" viewBox="0 0 400 400" fill="none" xmlns="http://www.w3.org/2000/svg">
<circle cx="200" cy="200" r="200" fill="#1F1F1F"/>
<path d="M90.5975 331V308.6H100.453C102.139 308.6 103.685 308.877 105.094 309.432C106.501 309.987 107.728 310.765 108.773 311.768C109.819 312.749 110.619 313.923 111.174 315.288C111.75 316.653 112.038 318.157 112.038 319.8C112.038 321.421 111.75 322.925 111.174 324.312C110.619 325.677 109.819 326.861 108.773 327.864C107.728 328.845 106.501 329.613 105.094 330.168C103.685 330.723 102.139 331 100.453 331H90.5975ZM97.5095 326.744L96.3255 325.112H100.293C100.997 325.112 101.637 324.984 102.213 324.728C102.789 324.451 103.291 324.077 103.717 323.608C104.144 323.139 104.475 322.584 104.709 321.944C104.944 321.283 105.061 320.568 105.061 319.8C105.061 319.032 104.944 318.328 104.709 317.688C104.475 317.027 104.144 316.461 103.717 315.992C103.291 315.523 102.789 315.16 102.213 314.904C101.637 314.627 100.997 314.488 100.293 314.488H96.2295L97.5095 312.92V326.744ZM122.279 331V308.6H128.455L138.759 322.84L137.287 322.392C137.18 321.539 137.084 320.792 136.999 320.152C136.935 319.512 136.871 318.925 136.807 318.392C136.764 317.837 136.721 317.293 136.679 316.76C136.657 316.227 136.647 315.64 136.647 315C136.647 314.36 136.647 313.613 136.647 312.76V308.6H143.303V331H137.063L125.703 315.32L128.295 316.088C128.401 316.877 128.487 317.571 128.551 318.168C128.636 318.744 128.7 319.277 128.743 319.768C128.785 320.259 128.817 320.749 128.839 321.24C128.881 321.709 128.903 322.243 128.903 322.84C128.924 323.416 128.935 324.099 128.935 324.888V331H122.279ZM151.635 331L160.627 308.6H166.067L174.995 331H168.147L164.563 321.208C164.328 320.547 164.126 319.981 163.955 319.512C163.784 319.043 163.635 318.605 163.507 318.2C163.379 317.773 163.251 317.325 163.123 316.856C162.995 316.365 162.867 315.789 162.739 315.128H163.827C163.699 315.789 163.571 316.365 163.443 316.856C163.315 317.325 163.176 317.773 163.027 318.2C162.899 318.605 162.739 319.043 162.547 319.512C162.376 319.981 162.174 320.547 161.939 321.208L158.355 331H151.635ZM156.115 327.672L158.131 322.968H168.531L170.355 327.672H156.115ZM208.756 331.32C207.071 331.32 205.578 331.139 204.276 330.776C202.996 330.392 201.866 329.859 200.884 329.176C199.924 328.493 199.06 327.693 198.292 326.776L202.292 322.296C203.359 323.661 204.468 324.568 205.62 325.016C206.794 325.443 207.892 325.656 208.916 325.656C209.322 325.656 209.684 325.624 210.004 325.56C210.324 325.475 210.57 325.347 210.74 325.176C210.911 325.005 210.996 324.771 210.996 324.472C210.996 324.195 210.9 323.96 210.708 323.768C210.538 323.576 210.303 323.416 210.004 323.288C209.706 323.139 209.375 323.021 209.012 322.936C208.671 322.829 208.33 322.744 207.988 322.68C207.668 322.616 207.38 322.552 207.124 322.488C205.844 322.189 204.724 321.827 203.764 321.4C202.804 320.973 202.004 320.461 201.364 319.864C200.724 319.267 200.244 318.584 199.924 317.816C199.626 317.048 199.476 316.184 199.476 315.224C199.476 314.136 199.722 313.144 200.212 312.248C200.724 311.352 201.396 310.584 202.228 309.944C203.082 309.304 204.042 308.813 205.108 308.472C206.196 308.131 207.316 307.96 208.468 307.96C210.154 307.96 211.562 308.12 212.692 308.44C213.823 308.739 214.772 309.176 215.54 309.752C216.308 310.328 216.97 311 217.524 311.768L213.492 315.64C213.023 315.192 212.532 314.829 212.02 314.552C211.508 314.253 210.975 314.04 210.42 313.912C209.887 313.763 209.354 313.688 208.82 313.688C208.33 313.688 207.914 313.731 207.572 313.816C207.231 313.88 206.964 313.997 206.772 314.168C206.58 314.317 206.484 314.531 206.484 314.808C206.484 315.085 206.602 315.32 206.836 315.512C207.092 315.683 207.402 315.832 207.764 315.96C208.148 316.088 208.522 316.195 208.884 316.28C209.268 316.344 209.588 316.397 209.844 316.44C211.018 316.653 212.095 316.952 213.076 317.336C214.058 317.699 214.911 318.168 215.636 318.744C216.383 319.299 216.948 320.003 217.332 320.856C217.738 321.688 217.94 322.68 217.94 323.832C217.94 325.475 217.524 326.851 216.692 327.96C215.882 329.069 214.783 329.912 213.396 330.488C212.01 331.043 210.463 331.32 208.756 331.32ZM241.16 331V308.6H248.072V331H241.16ZM227.816 331V308.6H234.728V331H227.816ZM230.408 322.84L230.44 316.824H245.064V322.84H230.408ZM270.407 331.32C268.637 331.32 267.015 331.032 265.543 330.456C264.071 329.88 262.791 329.069 261.703 328.024C260.615 326.979 259.773 325.741 259.175 324.312C258.599 322.883 258.311 321.325 258.311 319.64C258.311 317.933 258.599 316.376 259.175 314.968C259.773 313.539 260.615 312.301 261.703 311.256C262.791 310.211 264.071 309.4 265.543 308.824C267.015 308.248 268.626 307.96 270.375 307.96C272.146 307.96 273.757 308.248 275.207 308.824C276.679 309.4 277.959 310.211 279.047 311.256C280.135 312.301 280.967 313.539 281.543 314.968C282.141 316.376 282.439 317.923 282.439 319.608C282.439 321.315 282.141 322.883 281.543 324.312C280.967 325.741 280.135 326.979 279.047 328.024C277.959 329.069 276.679 329.88 275.207 330.456C273.757 331.032 272.157 331.32 270.407 331.32ZM270.375 324.92C271.101 324.92 271.762 324.792 272.359 324.536C272.978 324.28 273.511 323.917 273.959 323.448C274.429 322.957 274.781 322.392 275.015 321.752C275.271 321.112 275.399 320.408 275.399 319.64C275.399 318.872 275.271 318.168 275.015 317.528C274.781 316.888 274.429 316.333 273.959 315.864C273.511 315.373 272.978 315 272.359 314.744C271.762 314.488 271.101 314.36 270.375 314.36C269.65 314.36 268.978 314.488 268.359 314.744C267.762 315 267.229 315.373 266.759 315.864C266.311 316.333 265.959 316.888 265.703 317.528C265.469 318.168 265.351 318.872 265.351 319.64C265.351 320.408 265.469 321.112 265.703 321.752C265.959 322.392 266.311 322.957 266.759 323.448C267.229 323.917 267.762 324.28 268.359 324.536C268.978 324.792 269.65 324.92 270.375 324.92ZM292.679 331V308.6H302.759C304.295 308.6 305.66 308.931 306.855 309.592C308.049 310.253 308.988 311.16 309.671 312.312C310.353 313.464 310.695 314.787 310.695 316.28C310.695 317.837 310.353 319.224 309.671 320.44C308.988 321.656 308.049 322.616 306.855 323.32C305.66 324.003 304.295 324.344 302.759 324.344H299.591V331H292.679ZM299.463 318.456H301.479C301.884 318.456 302.247 318.381 302.567 318.232C302.887 318.061 303.132 317.827 303.303 317.528C303.495 317.229 303.591 316.856 303.591 316.408C303.591 315.96 303.495 315.597 303.303 315.32C303.132 315.043 302.887 314.84 302.567 314.712C302.247 314.563 301.884 314.488 301.479 314.488H299.463V318.456Z" fill="white"/>
<path d="M60.5396 270.784C60.4863 270.571 60.4596 270.277 60.4596 269.904C60.4596 269.52 60.5716 268.501 60.7956 266.848C61.1903 264.107 61.3876 261.984 61.3876 260.48C61.3876 260.16 61.3663 259.723 61.3236 259.168C62.1343 259.211 62.7263 259.339 63.0996 259.552C63.2596 259.637 63.3823 259.771 63.4676 259.952C63.553 260.123 63.601 260.283 63.6116 260.432C63.633 260.581 63.6436 260.853 63.6436 261.248C63.6436 261.643 63.4783 262.939 63.1476 265.136C62.8276 267.323 62.641 269.045 62.5876 270.304C65.1156 270.304 66.9876 270.101 68.2036 269.696C68.1076 270.485 67.8676 271.099 67.4836 271.536C67.0996 271.973 66.6196 272.192 66.0436 272.192C65.873 272.192 65.393 272.144 64.6036 272.048C63.825 271.963 62.9983 271.92 62.1236 271.92C61.249 271.92 60.3956 272.011 59.5636 272.192C59.7236 271.573 60.049 271.104 60.5396 270.784ZM74.6336 259.808C74.6336 260.021 74.5163 260.416 74.2816 260.992C74.047 261.568 73.9296 262.037 73.9296 262.4C73.9296 262.752 73.9616 263.072 74.0256 263.36C73.2896 263.36 72.799 263.243 72.5536 263.008C72.3083 262.763 72.1856 262.459 72.1856 262.096C72.1856 261.723 72.271 261.264 72.4416 260.72C72.623 260.165 72.7136 259.76 72.7136 259.504C72.7136 259.237 72.6816 258.992 72.6176 258.768C73.9616 258.768 74.6336 259.115 74.6336 259.808ZM80.8041 268.976C80.8041 269.477 80.8948 269.888 81.0761 270.208C81.2681 270.517 81.5348 270.672 81.8761 270.672C82.3775 270.672 82.8521 270.379 83.3001 269.792C83.7588 269.205 84.1215 268.453 84.3881 267.536C84.6655 266.619 84.8041 265.749 84.8041 264.928C84.8041 264.096 84.7721 263.424 84.7081 262.912C85.0281 262.891 85.2521 262.88 85.3801 262.88C85.9241 262.88 86.3348 262.981 86.6121 263.184C86.8895 263.387 87.0281 263.749 87.0281 264.272C87.0281 264.475 86.9001 265.301 86.6441 266.752C86.3881 268.192 86.2601 269.349 86.2601 270.224C86.2601 271.088 86.4255 271.856 86.7561 272.528C85.9561 272.389 85.3695 272.096 84.9961 271.648C84.6228 271.189 84.4361 270.533 84.4361 269.68C84.4361 269.531 84.4575 269.243 84.5001 268.816C84.2121 269.829 83.7001 270.645 82.9641 271.264C82.2281 271.883 81.5028 272.192 80.7881 272.192C80.0841 272.192 79.5135 271.931 79.0761 271.408C78.6495 270.875 78.4361 270.123 78.4361 269.152C78.4361 268.181 78.6068 267.243 78.9481 266.336C79.3001 265.419 79.8228 264.645 80.5161 264.016C81.2095 263.376 81.9828 263.056 82.8361 263.056C83.3268 263.056 83.8281 263.173 84.3401 263.408C83.2628 263.792 82.4041 264.549 81.7641 265.68C81.1241 266.8 80.8041 267.899 80.8041 268.976ZM99.2164 270.304C99.2164 270.837 99.2484 271.403 99.3124 272C98.971 272.021 98.747 272.032 98.6404 272.032C98.043 272.032 97.611 271.931 97.3444 271.728C97.0777 271.515 96.9444 271.205 96.9444 270.8C96.9444 270.395 97.0564 269.563 97.2804 268.304C97.515 267.035 97.6324 266.075 97.6324 265.424C97.6324 264.763 97.419 264.432 96.9924 264.432C96.7577 264.432 96.5017 264.576 96.2244 264.864C95.947 265.141 95.6857 265.525 95.4404 266.016C95.195 266.496 94.987 267.115 94.8164 267.872C94.6564 268.629 94.5764 269.36 94.5764 270.064C94.5764 270.757 94.6084 271.403 94.6724 272C94.331 272.021 94.107 272.032 94.0004 272.032C93.403 272.032 92.971 271.931 92.7044 271.728C92.4377 271.515 92.3044 271.163 92.3044 270.672C92.3044 270.555 92.411 269.76 92.6244 268.288C92.8484 266.816 92.9604 265.653 92.9604 264.8C92.9604 263.936 92.8697 263.147 92.6884 262.432C93.4777 262.677 94.027 263.029 94.3364 263.488C94.6457 263.947 94.8004 264.512 94.8004 265.184C94.8004 265.525 94.763 265.957 94.6884 266.48C95.051 265.413 95.5524 264.528 96.1924 263.824C96.843 263.12 97.467 262.768 98.0644 262.768C98.6724 262.768 99.1097 262.992 99.3764 263.44C99.6537 263.888 99.7924 264.533 99.7924 265.376C100.198 264.597 100.662 263.968 101.184 263.488C101.707 263.008 102.187 262.768 102.624 262.768C103.275 262.768 103.734 262.965 104 263.36C104.278 263.744 104.416 264.272 104.416 264.944C104.416 265.605 104.31 266.539 104.096 267.744C103.894 268.949 103.792 269.829 103.792 270.384C103.792 270.928 103.862 271.328 104 271.584C104.139 271.829 104.374 272.043 104.704 272.224C104.566 272.235 104.368 272.24 104.112 272.24C103.216 272.24 102.576 272.101 102.192 271.824C101.819 271.547 101.632 271.061 101.632 270.368C101.632 269.973 101.739 269.205 101.952 268.064C102.166 266.912 102.272 266.053 102.272 265.488C102.272 264.784 102.059 264.432 101.632 264.432C101.312 264.432 100.966 264.667 100.592 265.136C100.23 265.595 99.9097 266.293 99.6324 267.232C99.355 268.16 99.2164 269.184 99.2164 270.304ZM114.473 263.984C113.78 263.984 113.161 264.453 112.617 265.392C112.073 266.32 111.801 267.248 111.801 268.176C111.801 270.117 112.302 271.088 113.305 271.088C114.02 271.088 114.601 270.624 115.049 269.696C115.497 268.757 115.721 267.707 115.721 266.544C115.721 264.837 115.305 263.984 114.473 263.984ZM115.465 262.816C116.105 262.816 116.649 263.131 117.097 263.76C117.545 264.389 117.769 265.232 117.769 266.288C117.769 267.472 117.529 268.56 117.049 269.552C116.516 270.672 115.758 271.445 114.777 271.872C114.222 272.117 113.614 272.24 112.953 272.24C112.025 272.24 111.214 271.883 110.521 271.168C109.838 270.443 109.497 269.408 109.497 268.064C109.497 266.709 109.828 265.52 110.489 264.496C111.15 263.461 112.025 262.811 113.113 262.544C113.23 262.544 113.337 262.581 113.433 262.656C113.54 262.72 113.593 262.789 113.593 262.864C112.516 263.611 111.87 264.651 111.657 265.984C111.881 265.387 112.153 264.869 112.473 264.432C112.804 263.995 113.145 263.664 113.497 263.44C114.169 263.024 114.825 262.816 115.465 262.816ZM128.732 262.736C129.287 262.736 129.708 262.837 129.996 263.04C130.284 263.243 130.428 263.616 130.428 264.16C130.428 264.331 130.327 265.083 130.124 266.416C129.921 267.739 129.82 268.875 129.82 269.824C129.82 270.773 129.921 271.611 130.124 272.336C129.324 272.08 128.769 271.717 128.46 271.248C128.151 270.779 127.996 270.197 127.996 269.504C127.996 269.237 128.055 268.635 128.172 267.696C127.841 268.912 127.335 269.936 126.652 270.768C125.98 271.589 125.345 272 124.748 272C123.521 272 122.908 271.115 122.908 269.344C122.908 268.757 122.993 267.941 123.164 266.896C123.345 265.84 123.436 265.04 123.436 264.496C123.436 263.952 123.361 263.403 123.212 262.848C124.097 262.848 124.737 262.965 125.132 263.2C125.537 263.424 125.74 263.877 125.74 264.56C125.74 264.923 125.628 265.643 125.404 266.72C125.18 267.797 125.068 268.608 125.068 269.152C125.068 269.941 125.281 270.336 125.708 270.336C125.921 270.336 126.167 270.192 126.444 269.904C126.721 269.605 126.988 269.216 127.244 268.736C127.5 268.245 127.713 267.637 127.884 266.912C128.065 266.176 128.156 265.435 128.156 264.688C128.156 263.931 128.124 263.291 128.06 262.768C128.38 262.747 128.604 262.736 128.732 262.736ZM138.147 266.8C138.531 265.413 138.99 264.395 139.523 263.744C140.067 263.083 140.568 262.752 141.027 262.752C141.496 262.752 141.848 262.928 142.083 263.28C142.318 263.621 142.435 264.069 142.435 264.624C142.435 265.168 142.27 265.669 141.939 266.128C141.619 266.587 141.176 266.816 140.611 266.816C140.462 266.816 140.286 266.773 140.083 266.688C140.414 266.272 140.579 265.771 140.579 265.184C140.579 264.843 140.44 264.672 140.163 264.672C139.96 264.672 139.742 264.816 139.507 265.104C139.272 265.381 139.048 265.771 138.835 266.272C138.622 266.763 138.44 267.397 138.291 268.176C138.152 268.944 138.083 269.765 138.083 270.64C138.083 270.747 138.11 271.2 138.163 272C137.822 272.021 137.603 272.032 137.507 272.032C136.899 272.032 136.462 271.925 136.195 271.712C135.928 271.499 135.795 271.147 135.795 270.656C135.795 270.443 135.907 269.621 136.131 268.192C136.355 266.763 136.467 265.627 136.467 264.784C136.467 263.931 136.376 263.147 136.195 262.432C136.974 262.677 137.518 263.029 137.827 263.488C138.136 263.936 138.291 264.464 138.291 265.072C138.291 265.669 138.243 266.245 138.147 266.8ZM158.019 272C157.677 272.149 157.32 272.224 156.947 272.224C156.573 272.224 156.365 272.144 156.323 271.984C156.152 271.301 155.955 270.283 155.731 268.928C155.507 267.563 155.277 266.373 155.043 265.36C154.819 264.336 154.547 263.563 154.227 263.04C154.813 262.763 155.283 262.624 155.635 262.624C155.987 262.624 156.253 262.704 156.435 262.864C156.616 263.024 156.765 263.344 156.883 263.824C157.011 264.293 157.101 264.683 157.155 264.992C157.304 266.016 157.379 266.587 157.379 266.704C157.379 266.821 157.421 267.301 157.507 268.144C157.592 268.976 157.656 269.525 157.699 269.792C159.597 266.112 160.547 263.653 160.547 262.416C161.421 262.864 161.859 263.349 161.859 263.872C161.859 264.299 161.635 264.933 161.187 265.776C160.749 266.608 160.195 267.621 159.523 268.816C158.861 270 158.36 271.061 158.019 272ZM166.605 269.376C166.605 268.928 166.69 268.117 166.861 266.944C167.031 265.771 167.117 264.859 167.117 264.208C167.117 263.557 167.085 263.056 167.021 262.704C167.255 262.683 167.474 262.672 167.677 262.672C168.295 262.672 168.722 262.779 168.957 262.992C169.202 263.195 169.325 263.547 169.325 264.048C169.325 264.208 169.191 265.051 168.925 266.576C168.669 268.091 168.535 269.344 168.525 270.336C168.525 271.317 168.589 271.952 168.717 272.24C167.885 272.027 167.325 271.707 167.037 271.28C166.749 270.843 166.605 270.208 166.605 269.376ZM168.781 261.328C167.682 261.328 167.133 260.944 167.133 260.176C167.133 259.899 167.213 259.52 167.373 259.04C167.671 258.997 167.933 258.976 168.157 258.976C169.255 258.976 169.805 259.36 169.805 260.128C169.805 260.405 169.725 260.784 169.565 261.264C169.266 261.307 169.005 261.328 168.781 261.328ZM178.209 268.064C177.697 268.064 177.196 268.005 176.705 267.888C176.694 267.995 176.689 268.16 176.689 268.384C176.689 269.269 176.854 269.936 177.185 270.384C177.516 270.832 177.91 271.056 178.369 271.056C178.828 271.056 179.265 270.917 179.681 270.64C180.097 270.363 180.46 269.979 180.769 269.488C181.153 269.573 181.345 269.771 181.345 270.08C180.406 271.52 179.196 272.24 177.713 272.24C176.817 272.24 176.033 271.899 175.361 271.216C174.689 270.523 174.353 269.563 174.353 268.336C174.353 267.419 174.529 266.549 174.881 265.728C175.233 264.896 175.793 264.197 176.561 263.632C177.329 263.056 178.177 262.768 179.105 262.768C180.044 262.768 180.732 262.981 181.169 263.408C181.606 263.835 181.825 264.395 181.825 265.088C181.825 266.091 181.473 266.837 180.769 267.328C180.076 267.819 179.222 268.064 178.209 268.064ZM178.881 263.76C178.337 263.76 177.878 264.096 177.505 264.768C177.132 265.44 176.886 266.256 176.769 267.216H177.009C177.937 267.216 178.62 266.976 179.057 266.496C179.505 266.016 179.729 265.44 179.729 264.768C179.729 264.491 179.654 264.256 179.505 264.064C179.366 263.861 179.158 263.76 178.881 263.76ZM192.874 262.768C193.504 262.768 193.952 262.965 194.218 263.36C194.496 263.744 194.634 264.272 194.634 264.944C194.634 265.605 194.528 266.539 194.314 267.744C194.112 268.949 194.01 269.829 194.01 270.384C194.01 270.928 194.08 271.328 194.218 271.584C194.357 271.829 194.592 272.043 194.922 272.224C194.784 272.235 194.586 272.24 194.33 272.24C193.434 272.24 192.794 272.101 192.41 271.824C192.037 271.547 191.85 271.061 191.85 270.368C191.85 269.973 191.957 269.205 192.17 268.064C192.384 266.912 192.49 266.053 192.49 265.488C192.49 264.784 192.277 264.432 191.85 264.432C191.605 264.432 191.328 264.576 191.018 264.864C190.709 265.152 190.41 265.547 190.122 266.048C189.834 266.539 189.594 267.173 189.402 267.952C189.21 268.731 189.114 269.509 189.114 270.288C189.114 271.056 189.146 271.627 189.21 272C188.869 272.021 188.645 272.032 188.538 272.032C187.93 272.032 187.493 271.925 187.226 271.712C186.96 271.499 186.826 271.147 186.826 270.656C186.826 270.443 186.938 269.621 187.162 268.192C187.386 266.763 187.498 265.627 187.498 264.784C187.498 263.931 187.408 263.147 187.226 262.432C188.005 262.677 188.549 263.029 188.858 263.488C189.168 263.936 189.322 264.453 189.322 265.04C189.322 265.616 189.258 266.288 189.13 267.056C189.482 265.861 190.037 264.848 190.794 264.016C191.552 263.184 192.245 262.768 192.874 262.768ZM203.002 266.48C202.831 267.429 202.698 268.272 202.602 269.008C202.506 269.744 202.458 270.496 202.458 271.264C202.458 272.032 202.533 272.581 202.682 272.912C201.861 272.699 201.295 272.373 200.986 271.936C200.677 271.488 200.522 270.859 200.522 270.048C200.522 269.333 200.634 268.357 200.858 267.12C201.082 265.872 201.226 265.029 201.29 264.592C200.735 264.688 200.143 264.875 199.514 265.152C199.493 264.917 199.482 264.741 199.482 264.624C199.482 264.059 199.653 263.675 199.994 263.472C200.335 263.259 200.826 263.147 201.466 263.136C201.541 262.336 201.578 261.76 201.578 261.408C201.578 261.056 201.573 260.763 201.562 260.528C201.562 260.293 201.562 260.117 201.562 260C202.266 260.075 202.778 260.288 203.098 260.64C203.418 260.981 203.578 261.472 203.578 262.112C203.578 262.368 203.551 262.725 203.498 263.184C204.394 263.163 205.05 262.987 205.466 262.656C205.487 262.869 205.498 263.029 205.498 263.136C205.498 263.648 205.407 264.005 205.226 264.208C205.045 264.4 204.741 264.496 204.314 264.496C203.887 264.496 203.562 264.491 203.338 264.48C203.285 264.864 203.173 265.531 203.002 266.48ZM219.719 268.768C219.719 270.037 220.103 270.672 220.871 270.672C221.276 270.672 221.671 270.453 222.055 270.016C222.439 269.579 222.748 268.992 222.983 268.256C223.228 267.52 223.436 266.736 223.607 265.904C223.788 265.061 223.922 264.171 224.007 263.232C224.156 261.419 224.231 260.005 224.231 258.992C224.231 257.968 224.188 257.2 224.103 256.688C224.871 256.859 225.41 257.221 225.719 257.776C226.028 258.331 226.183 259.029 226.183 259.872C226.183 260.715 226.002 262.283 225.639 264.576C225.287 266.869 225.111 268.544 225.111 269.6C225.111 270.656 225.159 271.552 225.255 272.288C224.498 272.085 223.975 271.723 223.687 271.2C223.41 270.667 223.271 270 223.271 269.2C222.94 270.117 222.444 270.843 221.783 271.376C221.122 271.909 220.439 272.176 219.735 272.176C219.031 272.176 218.455 271.909 218.007 271.376C217.57 270.832 217.351 270.037 217.351 268.992C217.351 267.339 217.804 265.92 218.711 264.736C219.618 263.541 220.69 262.944 221.927 262.944C222.279 262.944 222.834 263.029 223.591 263.2C222.93 263.371 222.338 263.669 221.815 264.096C221.303 264.512 220.903 264.992 220.615 265.536C220.018 266.613 219.719 267.691 219.719 268.768ZM233.402 259.808C233.402 260.021 233.285 260.416 233.05 260.992C232.816 261.568 232.698 262.037 232.698 262.4C232.698 262.752 232.73 263.072 232.794 263.36C232.058 263.36 231.568 263.243 231.322 263.008C231.077 262.763 230.954 262.459 230.954 262.096C230.954 261.723 231.04 261.264 231.21 260.72C231.392 260.165 231.482 259.76 231.482 259.504C231.482 259.237 231.45 258.992 231.386 258.768C232.73 258.768 233.402 259.115 233.402 259.808ZM243.557 262.736C244.112 262.736 244.533 262.837 244.821 263.04C245.109 263.243 245.253 263.616 245.253 264.16C245.253 264.331 245.152 265.083 244.949 266.416C244.746 267.739 244.645 268.875 244.645 269.824C244.645 270.773 244.746 271.611 244.949 272.336C244.149 272.08 243.594 271.717 243.285 271.248C242.976 270.779 242.821 270.197 242.821 269.504C242.821 269.237 242.88 268.635 242.997 267.696C242.666 268.912 242.16 269.936 241.477 270.768C240.805 271.589 240.17 272 239.573 272C238.346 272 237.733 271.115 237.733 269.344C237.733 268.757 237.818 267.941 237.989 266.896C238.17 265.84 238.261 265.04 238.261 264.496C238.261 263.952 238.186 263.403 238.037 262.848C238.922 262.848 239.562 262.965 239.957 263.2C240.362 263.424 240.565 263.877 240.565 264.56C240.565 264.923 240.453 265.643 240.229 266.72C240.005 267.797 239.893 268.608 239.893 269.152C239.893 269.941 240.106 270.336 240.533 270.336C240.746 270.336 240.992 270.192 241.269 269.904C241.546 269.605 241.813 269.216 242.069 268.736C242.325 268.245 242.538 267.637 242.709 266.912C242.89 266.176 242.981 265.435 242.981 264.688C242.981 263.931 242.949 263.291 242.885 262.768C243.205 262.747 243.429 262.736 243.557 262.736ZM256.668 262.768C257.297 262.768 257.745 262.965 258.012 263.36C258.289 263.744 258.428 264.272 258.428 264.944C258.428 265.605 258.321 266.539 258.108 267.744C257.905 268.949 257.804 269.829 257.804 270.384C257.804 270.928 257.873 271.328 258.012 271.584C258.151 271.829 258.385 272.043 258.716 272.224C258.577 272.235 258.38 272.24 258.124 272.24C257.228 272.24 256.588 272.101 256.204 271.824C255.831 271.547 255.644 271.061 255.644 270.368C255.644 269.973 255.751 269.205 255.964 268.064C256.177 266.912 256.284 266.053 256.284 265.488C256.284 264.784 256.071 264.432 255.644 264.432C255.399 264.432 255.121 264.576 254.812 264.864C254.503 265.152 254.204 265.547 253.916 266.048C253.628 266.539 253.388 267.173 253.196 267.952C253.004 268.731 252.908 269.509 252.908 270.288C252.908 271.056 252.94 271.627 253.004 272C252.663 272.021 252.439 272.032 252.332 272.032C251.724 272.032 251.287 271.925 251.02 271.712C250.753 271.499 250.62 271.147 250.62 270.656C250.62 270.443 250.732 269.621 250.956 268.192C251.18 266.763 251.292 265.627 251.292 264.784C251.292 263.931 251.201 263.147 251.02 262.432C251.799 262.677 252.343 263.029 252.652 263.488C252.961 263.936 253.116 264.453 253.116 265.04C253.116 265.616 253.052 266.288 252.924 267.056C253.276 265.861 253.831 264.848 254.588 264.016C255.345 263.184 256.039 262.768 256.668 262.768ZM274.669 266.8C275.053 265.413 275.512 264.395 276.045 263.744C276.589 263.083 277.09 262.752 277.549 262.752C278.018 262.752 278.37 262.928 278.605 263.28C278.84 263.621 278.957 264.069 278.957 264.624C278.957 265.168 278.792 265.669 278.461 266.128C278.141 266.587 277.698 266.816 277.133 266.816C276.984 266.816 276.808 266.773 276.605 266.688C276.936 266.272 277.101 265.771 277.101 265.184C277.101 264.843 276.962 264.672 276.685 264.672C276.482 264.672 276.264 264.816 276.029 265.104C275.794 265.381 275.57 265.771 275.357 266.272C275.144 266.763 274.962 267.397 274.813 268.176C274.674 268.944 274.605 269.765 274.605 270.64C274.605 270.747 274.632 271.2 274.685 272C274.344 272.021 274.125 272.032 274.029 272.032C273.421 272.032 272.984 271.925 272.717 271.712C272.45 271.499 272.317 271.147 272.317 270.656C272.317 270.443 272.429 269.621 272.653 268.192C272.877 266.763 272.989 265.627 272.989 264.784C272.989 263.931 272.898 263.147 272.717 262.432C273.496 262.677 274.04 263.029 274.349 263.488C274.658 263.936 274.813 264.464 274.813 265.072C274.813 265.669 274.765 266.245 274.669 266.8ZM286.459 268.064C285.947 268.064 285.446 268.005 284.955 267.888C284.944 267.995 284.939 268.16 284.939 268.384C284.939 269.269 285.104 269.936 285.435 270.384C285.766 270.832 286.16 271.056 286.619 271.056C287.078 271.056 287.515 270.917 287.931 270.64C288.347 270.363 288.71 269.979 289.019 269.488C289.403 269.573 289.595 269.771 289.595 270.08C288.656 271.52 287.446 272.24 285.963 272.24C285.067 272.24 284.283 271.899 283.611 271.216C282.939 270.523 282.603 269.563 282.603 268.336C282.603 267.419 282.779 266.549 283.131 265.728C283.483 264.896 284.043 264.197 284.811 263.632C285.579 263.056 286.427 262.768 287.355 262.768C288.294 262.768 288.982 262.981 289.419 263.408C289.856 263.835 290.075 264.395 290.075 265.088C290.075 266.091 289.723 266.837 289.019 267.328C288.326 267.819 287.472 268.064 286.459 268.064ZM287.131 263.76C286.587 263.76 286.128 264.096 285.755 264.768C285.382 265.44 285.136 266.256 285.019 267.216H285.259C286.187 267.216 286.87 266.976 287.307 266.496C287.755 266.016 287.979 265.44 287.979 264.768C287.979 264.491 287.904 264.256 287.755 264.064C287.616 263.861 287.408 263.76 287.131 263.76ZM299.892 262.928C300.095 262.928 300.25 262.939 300.356 262.96C300.634 263.013 300.783 263.211 300.804 263.552C299.642 263.797 298.714 264.427 298.02 265.44C297.338 266.453 296.996 267.509 296.996 268.608C296.996 269.888 297.386 270.528 298.164 270.528C298.634 270.528 299.055 270.272 299.428 269.76C300.09 268.832 300.554 267.381 300.82 265.408C301.023 263.851 301.402 262.848 301.956 262.4C302.223 262.176 302.554 262 302.948 261.872C302.799 263.003 302.724 263.856 302.724 264.432C302.724 268.699 302.266 271.904 301.348 274.048C300.442 276.192 298.959 277.264 296.9 277.264C296.068 277.264 295.418 277.04 294.948 276.592C294.479 276.155 294.244 275.669 294.244 275.136C294.244 274.613 294.41 274.181 294.74 273.84C295.071 273.509 295.535 273.344 296.132 273.344C296.378 273.344 296.628 273.397 296.884 273.504C296.479 273.771 296.276 274.181 296.276 274.736C296.276 275.109 296.388 275.429 296.612 275.696C296.836 275.973 297.108 276.112 297.428 276.112C297.759 276.112 298.047 276.043 298.292 275.904C298.538 275.776 298.788 275.541 299.044 275.2C299.3 274.859 299.524 274.432 299.716 273.92C300.154 272.736 300.394 271.12 300.436 269.072C300.127 269.989 299.658 270.725 299.028 271.28C298.399 271.835 297.759 272.112 297.108 272.112C296.287 272.112 295.658 271.803 295.22 271.184C294.794 270.555 294.58 269.755 294.58 268.784C294.58 267.653 294.852 266.603 295.396 265.632C296.004 264.512 296.847 263.733 297.924 263.296C298.522 263.051 299.178 262.928 299.892 262.928ZM310.039 268.976C310.039 269.477 310.129 269.888 310.311 270.208C310.503 270.517 310.769 270.672 311.111 270.672C311.612 270.672 312.087 270.379 312.535 269.792C312.993 269.205 313.356 268.453 313.623 267.536C313.9 266.619 314.039 265.749 314.039 264.928C314.039 264.096 314.007 263.424 313.943 262.912C314.263 262.891 314.487 262.88 314.615 262.88C315.159 262.88 315.569 262.981 315.847 263.184C316.124 263.387 316.263 263.749 316.263 264.272C316.263 264.475 316.135 265.301 315.878 266.752C315.623 268.192 315.495 269.349 315.495 270.224C315.495 271.088 315.66 271.856 315.991 272.528C315.191 272.389 314.604 272.096 314.231 271.648C313.857 271.189 313.671 270.533 313.671 269.68C313.671 269.531 313.692 269.243 313.735 268.816C313.447 269.829 312.935 270.645 312.199 271.264C311.463 271.883 310.737 272.192 310.023 272.192C309.319 272.192 308.748 271.931 308.311 271.408C307.884 270.875 307.671 270.123 307.671 269.152C307.671 268.181 307.841 267.243 308.183 266.336C308.535 265.419 309.057 264.645 309.751 264.016C310.444 263.376 311.217 263.056 312.071 263.056C312.561 263.056 313.063 263.173 313.575 263.408C312.497 263.792 311.639 264.549 310.999 265.68C310.359 266.8 310.039 267.899 310.039 268.976ZM323.891 266.8C324.275 265.413 324.733 264.395 325.267 263.744C325.811 263.083 326.312 262.752 326.771 262.752C327.24 262.752 327.592 262.928 327.827 263.28C328.061 263.621 328.179 264.069 328.179 264.624C328.179 265.168 328.013 265.669 327.683 266.128C327.363 266.587 326.92 266.816 326.355 266.816C326.205 266.816 326.029 266.773 325.827 266.688C326.157 266.272 326.323 265.771 326.323 265.184C326.323 264.843 326.184 264.672 325.907 264.672C325.704 264.672 325.485 264.816 325.251 265.104C325.016 265.381 324.792 265.771 324.579 266.272C324.365 266.763 324.184 267.397 324.035 268.176C323.896 268.944 323.827 269.765 323.827 270.64C323.827 270.747 323.853 271.2 323.907 272C323.565 272.021 323.347 272.032 323.251 272.032C322.643 272.032 322.205 271.925 321.939 271.712C321.672 271.499 321.539 271.147 321.539 270.656C321.539 270.443 321.651 269.621 321.875 268.192C322.099 266.763 322.211 265.627 322.211 264.784C322.211 263.931 322.12 263.147 321.939 262.432C322.717 262.677 323.261 263.029 323.571 263.488C323.88 263.936 324.035 264.464 324.035 265.072C324.035 265.669 323.987 266.245 323.891 266.8ZM333.969 268.768C333.969 270.037 334.353 270.672 335.121 270.672C335.526 270.672 335.921 270.453 336.305 270.016C336.689 269.579 336.998 268.992 337.233 268.256C337.478 267.52 337.686 266.736 337.857 265.904C338.038 265.061 338.172 264.171 338.257 263.232C338.406 261.419 338.481 260.005 338.481 258.992C338.481 257.968 338.438 257.2 338.353 256.688C339.121 256.859 339.66 257.221 339.969 257.776C340.278 258.331 340.433 259.029 340.433 259.872C340.433 260.715 340.252 262.283 339.889 264.576C339.537 266.869 339.361 268.544 339.361 269.6C339.361 270.656 339.409 271.552 339.505 272.288C338.748 272.085 338.225 271.723 337.937 271.2C337.66 270.667 337.521 270 337.521 269.2C337.19 270.117 336.694 270.843 336.033 271.376C335.372 271.909 334.689 272.176 333.985 272.176C333.281 272.176 332.705 271.909 332.257 271.376C331.82 270.832 331.601 270.037 331.601 268.992C331.601 267.339 332.054 265.92 332.961 264.736C333.868 263.541 334.94 262.944 336.177 262.944C336.529 262.944 337.084 263.029 337.841 263.2C337.18 263.371 336.588 263.669 336.065 264.096C335.553 264.512 335.153 264.992 334.865 265.536C334.268 266.613 333.969 267.691 333.969 268.768Z" fill="white"/>
<path fill-rule="evenodd" clip-rule="evenodd" d="M170.803 70.1035C168.462 72.0739 165.533 75.6114 164.294 77.9661C161.098 84.0387 161.473 98.1052 165.08 107.462C166.657 111.555 167.801 115.049 167.622 115.228C167.443 115.406 161.458 114.026 154.321 112.159C139.113 108.182 129.214 108.601 117.846 113.703C97.6766 122.754 102.108 150.307 125.189 159.351C129.087 160.879 136.265 162.823 141.138 163.672L150 165.215L142.886 175.693C129.864 194.873 126.657 211.765 133.485 225.232C145.638 249.204 177.61 244.113 191.704 215.961C193.506 212.362 196.36 205.224 198.046 200.099C199.732 194.974 201.297 190.974 201.524 191.211C201.753 191.447 204.757 195.476 208.201 200.163C222.269 219.309 239.01 224.411 254.361 214.232C262.407 208.895 265.471 203.339 265.389 194.231C265.281 182.276 255.391 164.353 245.288 157.81C240.355 154.613 239.198 152.669 242.232 152.669C244.886 152.669 263.067 143.685 269.83 139.032C274.06 136.122 277.046 132.445 280.027 126.482C288.654 109.215 283.652 94.3462 267.596 89.5357C256.382 86.176 236.82 92.864 219.559 105.957C214.442 109.839 209.982 113.014 209.645 113.014C209.309 113.014 209.034 110.89 209.034 108.295C209.034 97.6827 203.873 82.2392 197.761 74.5585C191.165 66.2665 177.956 64.0841 170.803 70.1035ZM189.822 70.7503C199.198 76.0202 205.488 89.4523 207.199 107.859C207.672 112.95 208.61 117.116 209.283 117.116C209.957 117.116 213.079 114.645 216.221 111.626C223.079 105.037 237.331 96.3864 246.344 93.3439C254.403 90.6228 265.036 90.5025 271.16 93.0609C277.191 95.5796 282.893 103.996 282.81 110.255C282.733 116.1 277.017 130.234 274.914 129.781C274.082 129.602 273.703 130.242 274.071 131.202C274.702 132.847 264.135 141.4 260.61 142.096C259.729 142.271 258.244 143.12 257.308 143.984C256.371 144.85 251.588 146.998 246.677 148.759C241.767 150.519 237.75 152.631 237.75 153.451C237.75 154.27 240.469 156.894 243.795 159.282C255.858 167.944 265.416 187.698 263.216 199.419C262.226 204.699 254.298 213.215 248.258 215.488C242.705 217.578 232.99 217.269 227.108 214.816C220.769 212.173 214.292 206.04 208.181 196.895C201.077 186.266 200.09 186.493 195.973 199.699C192.112 212.077 184.407 226.048 181.769 225.449C180.86 225.243 180.472 225.65 180.907 226.354C181.961 228.059 172.63 235.247 166.783 237.235C161.029 239.192 156.543 239.223 149.808 237.352C143.206 235.519 134.851 227.012 136.023 223.316C136.57 221.594 136.335 221.017 135.338 221.634C132.928 223.123 130.765 215.556 131.576 208.474C132.559 199.888 139.955 182.455 145.591 175.439C150.817 168.933 154.927 162.079 153.355 162.495C150.958 163.128 135.439 160.437 127.701 158.047C110.869 152.849 102.383 137.43 108.937 123.953C112.728 116.158 122.049 112.33 137.245 112.33C145.396 112.33 152.653 113.231 158.735 114.997C163.788 116.464 168.317 117.267 168.801 116.783C169.286 116.299 168.384 112.056 166.796 107.356C161.075 90.4177 163.855 75.2723 173.598 70.2853C179.714 67.1526 183.621 67.2647 189.822 70.7503ZM209.718 121.219C209.253 121.971 209.525 122.586 210.321 122.586C211.117 122.586 211.769 121.971 211.769 121.219C211.769 120.466 211.498 119.851 211.166 119.851C210.834 119.851 210.183 120.466 209.718 121.219ZM248.689 171.813C248.689 172.565 249.304 173.18 250.056 173.18C250.808 173.18 251.424 172.565 251.424 171.813C251.424 171.06 250.808 170.445 250.056 170.445C249.304 170.445 248.689 171.06 248.689 171.813Z" fill="white"/>
<path d="M174.738 123.426C174.738 134.754 162.82 163.765 151.492 163.765C146.116 163.765 128.841 161.012 119.358 154.877C108.86 148.084 106.367 137.582 106.367 131.631C106.367 120.303 120.336 111.12 131.664 111.12C142.992 111.12 174.738 112.098 174.738 123.426Z" fill="white"/>
<path d="M204.137 122.742C193.879 127.547 174.07 129.192 169.265 118.934C166.985 114.065 162.151 97.2541 163.684 86.0636C165.383 73.6755 167.981 71.9381 173.371 69.4136C183.629 64.6087 195.914 70.7781 200.718 81.0366C205.523 91.295 214.395 117.938 204.137 122.742Z" fill="white"/>
<path d="M201.402 178.122C207.279 172.176 221.686 154.688 234.22 152.825C238.669 152.164 246.467 159.628 248.578 161.713C252.402 165.493 261.187 177.348 263.619 188.378C266.312 200.588 259.742 207.929 255.558 212.162C247.596 220.219 229.287 220.125 221.23 212.162C213.172 204.199 193.439 186.18 201.402 178.122Z" fill="white"/>
<path d="M230.117 150.091C225.522 143.106 205.405 131.288 206.188 118.641C206.466 114.151 224.22 103.863 226.699 102.232C231.191 99.2766 244.109 90.8716 255.404 90.7849C267.907 90.6889 276.073 93.1573 279.344 98.1293C281.433 101.304 283.318 105.042 283.447 109.752C283.702 119.083 276.745 132.963 270.456 137.1C260.993 143.327 236.344 159.554 230.117 150.091Z" fill="white"/>
<path d="M156.278 163.081C167.33 165.565 202.519 179.377 200.035 190.429C198.856 195.675 188.957 220.809 180.891 228.716C171.962 237.47 160.034 240.961 154.227 239.656C149.963 238.697 141.842 234.856 137.818 230.084C131.411 222.488 130.139 212.259 131.664 205.471C134.148 194.418 145.226 160.597 156.278 163.081Z" fill="white"/>
<path d="M168.584 114.538H208.923L238.322 153.509L201.402 191.796L151.492 163.765L168.584 114.538Z" fill="white"/>
<ellipse cx="197.3" cy="149.407" rx="19.8274" ry="18.46" fill="#1E1E1E"/>
<path fill-rule="evenodd" clip-rule="evenodd" d="M192.193 128.284C185.21 130.32 181.21 133.794 177.521 141.025C173.351 149.199 173.877 156.318 179.032 161.473C184.848 167.288 190.506 169.979 197.993 170.488C205.344 170.988 213.487 167.779 218.397 162.448C222.73 157.741 223.806 147.557 220.661 140.988C215.963 131.17 215.037 129.955 211.705 129.233C209.825 128.826 207.363 128.157 206.235 127.747C202.502 126.391 198.113 126.559 192.193 128.284ZM202.133 135.746C202.133 139.378 198.297 140.52 195.531 137.713C193.394 135.541 193.409 135.269 195.771 133.517C198.937 131.167 202.133 132.287 202.133 135.746ZM187.042 144.386C189.092 146.856 187.775 149.232 184.357 149.232C181.21 149.232 179.969 147.465 181.08 144.569C182.122 141.853 184.87 141.768 187.042 144.386ZM214.44 145.21C214.44 145.918 213.517 146.497 212.389 146.497C210.275 146.497 209.672 144.883 211.211 143.344C212.304 142.251 214.44 143.486 214.44 145.21ZM201.615 151.344C200.896 153.219 200.355 153.328 198.682 151.939C197.089 150.617 196.988 149.805 198.229 148.309C200.273 145.845 202.841 148.149 201.615 151.344ZM193.929 160.855C193.929 161.983 193.006 162.906 191.878 162.906C190.749 162.906 189.826 161.983 189.826 160.855C189.826 159.727 190.749 158.804 191.878 158.804C193.006 158.804 193.929 159.727 193.929 160.855ZM211.445 161.196C211.191 162.513 210.078 163.589 208.97 163.589C207.862 163.589 206.749 162.513 206.495 161.196C206.172 159.517 206.911 158.804 208.97 158.804C211.029 158.804 211.768 159.517 211.445 161.196Z" fill="#E1C168"/>
<path fill-rule="evenodd" clip-rule="evenodd" d="M237.596 104.892C234.303 108.184 234.129 110.802 237.009 113.683C242.994 119.668 255.241 110.64 249.887 104.19C247.485 101.295 240.812 101.675 237.596 104.892ZM253.166 119.158C251.699 122.984 253.716 125.617 257.757 125.152C260.75 124.808 261.525 124.015 261.525 121.3C261.525 118.586 260.75 117.793 257.757 117.448C255.299 117.165 253.702 117.76 253.166 119.158ZM161.704 183.118C157.63 185.455 155.643 188.554 155.595 192.65C155.487 201.748 165.619 203.435 169.96 195.042C172.626 189.887 172.486 188.016 169.172 184.46C165.997 181.051 165.473 180.956 161.704 183.118ZM163.803 211.459C163.025 212.914 162.388 214.409 162.388 214.781C162.388 215.939 166.622 219.754 167.907 219.754C169.958 219.754 171.866 214.902 171.047 211.771C170.081 208.08 165.712 207.893 163.803 211.459Z" fill="#727273"/>
</svg>
