<svg width="1200" height="1200" viewBox="0 0 1200 1200" fill="none" xmlns="http://www.w3.org/2000/svg">
<rect width="1200" height="1200" rx="600" fill="#03649F"/>
<path d="M733.522 529.986C671.586 488.185 616.884 460.216 570.796 446.775C527.195 434.063 468.462 430.761 432.355 438.989C378.678 451.224 321.001 488.926 261.839 550.461C241.542 571.57 214.092 597.077 200.844 607.137C175.294 626.544 169.313 638.629 177.312 654.675C183.152 666.382 200.084 672.265 213.939 667.391C221.221 664.829 229.515 655.108 240.017 636.824C255.4 610.045 281.025 587.269 289.722 592.644C298.426 598.022 293.209 611.184 273.956 632.446C252.709 655.908 250.92 664.66 265.85 672.103C280.777 679.547 295.672 671.485 317.356 644.232C328.145 630.673 339.691 617.327 343.017 614.569C353.061 606.23 360.879 616.393 360.879 637.794C360.879 658.06 365.828 665.684 378.978 665.684C389.972 665.684 392.828 658.056 389.881 636.556C386.922 614.982 392.072 611.333 412.487 620.542C420.991 624.376 429.104 626.358 430.515 624.944C431.926 623.533 430.692 615.14 427.773 606.297C421.464 587.17 422.027 586.591 457.925 575.313C515.295 557.29 568.597 557.286 626.861 575.302C661.163 585.909 686.997 598.732 717.492 620.294C754.777 646.652 774.144 655.23 797.082 655.55C822.297 655.9 829.185 650.518 822.447 635.729C819.826 629.972 818.211 624.731 818.857 624.085C819.503 623.438 832.424 625.562 847.571 628.809C882.46 636.288 904.539 633.96 924.596 620.684C945.701 606.719 951.285 594.429 942.568 581.126C934.51 568.827 925.057 568.512 903.522 579.833C891.295 586.26 880.198 588.542 861.32 588.506C828.476 588.443 802.54 576.567 733.522 529.986Z" fill="white"/>
<path d="M932.433 502.375C938.313 509.464 948.735 502.714 945.386 493.986C942.868 487.425 933.844 486.53 930.172 492.477C928.773 494.738 929.789 499.191 932.433 502.375Z" fill="white"/>
<path d="M916.163 531.708C910.394 531.708 908.605 528.914 908.605 519.887C908.605 510.599 906.876 508.065 900.531 508.065C890.716 508.065 877.298 534.908 877.168 554.803C877.082 567.937 877.204 568.027 891.563 565.332C899.527 563.839 912.826 559.902 921.116 556.584C943.554 547.608 940.389 531.708 916.163 531.708Z" fill="white"/>
<path d="M969.683 611.235C988.901 619.991 1008.36 601.514 994.508 587.663C991.907 585.062 985.169 582.934 979.534 582.934C959.371 582.934 952.282 603.307 969.683 611.235Z" fill="white"/>
<path d="M458.603 642.83C464.73 648.957 475.153 643.578 475.153 634.283C475.153 628.865 472.568 626.28 467.15 626.28C457.854 626.28 452.475 636.702 458.603 642.83Z" fill="white"/>
<path d="M1011.73 634.83C1013.41 646.695 1028.79 647.866 1028.79 636.131C1028.79 630.878 1025.73 627.816 1019.61 626.949C1011.97 625.866 1010.64 627.19 1011.73 634.83Z" fill="white"/>
<path d="M849.325 657.524C853.36 664.049 865.26 660.25 865.26 652.436C865.26 649.351 862.73 645.856 859.637 644.666C852.186 641.809 845.085 650.663 849.325 657.524Z" fill="white"/>
<path d="M425.846 701.105C434.172 708.017 443.629 703.087 443.629 691.841C443.629 680.067 434.117 675.76 426.011 683.866C418.469 691.408 418.438 694.958 425.846 701.105Z" fill="white"/>
<path d="M910.115 697.208C917.401 697.208 924.009 689.044 921.668 682.936C919.067 676.158 906.139 675.796 903.696 682.431C901.115 689.449 904.488 697.208 910.115 697.208Z" fill="white"/>
<path d="M294.559 588.157C536.171 388.297 788.978 653.678 788.978 653.678" stroke="#03649F" stroke-width="0.5"/>
<path d="M294.55 588.145C482.82 329.267 653.098 535.068 743.651 599.918C784.742 629.345 931.927 611.678 931.927 611.678" stroke="#03649F" stroke-width="0.5"/>
<path d="M486.743 488.116C486.743 500.899 351.855 541.272 331.811 556.757C321.283 564.89 309.107 584.213 302.394 584.213C288.665 586.175 313.891 566.684 329.85 554.796C340.917 546.551 345.539 545.129 345.539 537.145C345.539 517.649 428.02 484.194 447.516 484.194C467.012 484.194 486.743 468.62 486.743 488.116Z" fill="#03649F"/>
<path d="M396.528 488.113L429.868 470.463L445.557 464.58L463.208 460.657L480.858 458.696H496.547L524.004 462.618L549.499 468.502L573.033 478.308L594.605 488.113L629.906 509.686L647.557 521.453L665.207 535.181L710.314 574.404L733.848 592.055L745.615 601.86L757.382 605.783L606.372 535.181L561.266 521.453L514.198 513.608H463.208L435.751 519.492L412.217 523.414L410.256 521.453L396.528 488.113Z" fill="#03649F"/>
<path d="M680.903 568.508L722.088 586.158L749.544 603.809L769.155 609.692L788.767 613.615L829.951 617.537L880.941 615.576L931.931 611.654L808.378 621.459C808.378 621.459 814.262 629.304 816.223 635.187C818.184 641.071 829.951 653.947 816.223 655.908C802.495 657.869 791.216 658.908 791.216 658.908L769.155 635.187L749.544 619.498L729.932 603.809L708.359 588.12L692.67 578.314L680.903 570.469V568.508Z" fill="#03649F"/>
<path d="M302.394 578.337L320.044 556.764L339.656 535.192L357.306 517.541L374.957 503.813L400.452 486.163L427.908 472.435L490.665 486.163L361.228 543.037L302.394 578.337Z" fill="#03649F"/>
<path d="M783.79 634.745H803.401L808.379 619.53L939.777 609.724L920.165 625.414L898.592 634.745L867.214 632.003L878.981 625.414L829.952 652.87L803.401 654.357L795.665 654.897L787.712 654.357L783.79 634.745Z" fill="#03649F"/>
</svg>
